<svg width="424" height="326" viewBox="0 0 424 326" fill="none" xmlns="http://www.w3.org/2000/svg">
<path d="M286.084 118.302C284.184 134.302 282.484 149.002 280.784 163.702C277.484 192.802 274.184 222.002 270.884 251.102C268.484 272.102 266.184 293.202 263.784 314.202C262.984 321.402 258.884 325.602 252.884 325.602C247.084 325.602 242.884 321.602 242.084 314.702C237.884 278.102 233.684 241.502 229.484 205.002C226.184 176.502 222.984 148.102 219.784 119.602C218.184 105.502 216.584 91.5022 214.984 77.4022C214.784 75.9022 214.584 74.5022 213.384 72.9022C212.884 76.7022 212.284 80.4022 211.784 84.2022C207.084 125.902 202.384 167.602 197.684 209.402C193.684 244.502 189.784 279.602 185.684 314.702C184.884 321.702 180.784 325.602 174.984 325.602C168.984 325.702 164.584 321.502 163.784 314.402C160.284 283.102 156.884 251.802 153.384 220.502C149.684 187.202 145.884 154.002 142.084 120.702C142.084 120.402 141.784 120.202 140.884 118.702C139.684 126.302 138.584 132.902 137.584 139.402C131.984 176.502 126.484 213.502 120.984 250.602C119.884 258.202 118.884 265.802 117.584 273.302C116.484 279.902 112.384 283.602 106.784 283.602C101.184 283.602 96.9837 279.802 95.7837 273.302C90.6837 245.602 85.6837 217.902 80.6837 190.202C77.2837 171.402 73.8837 152.502 70.1837 132.402C69.2837 134.602 68.7837 135.602 68.4837 136.702C64.4837 151.802 60.5837 167.002 56.5837 182.102C54.2837 190.802 51.2837 193.002 42.4837 193.002C31.1837 193.002 19.7837 193.002 8.48366 193.002C4.68366 193.002 1.08366 191.502 0.283661 187.702C-0.316339 185.002 -0.0163394 181.002 1.68366 179.102C3.38366 177.102 7.18366 176.102 10.0837 175.902C18.3837 175.502 26.7837 175.502 35.0837 175.902C39.4837 176.102 41.0837 174.402 42.1837 170.302C47.7837 148.002 53.6837 125.802 59.3837 103.602C59.7837 102.202 60.0837 100.702 60.4837 99.3022C62.0837 94.1022 66.0837 90.9022 70.9837 91.0022C76.1837 91.0022 80.3837 94.3022 81.5837 99.9022C83.3837 108.502 84.8837 117.202 86.4837 125.902C92.5837 159.802 98.7837 193.702 104.884 227.602C105.084 228.502 105.484 229.402 106.584 230.402C107.784 222.602 109.084 214.702 110.284 206.902C115.884 169.702 121.384 132.502 126.984 95.2022C128.384 85.5022 129.684 75.7022 131.284 66.0022C132.484 58.8022 136.684 54.8022 142.584 55.0022C148.484 55.2022 152.584 59.6022 153.384 66.7022C158.784 115.402 164.184 164.102 169.584 212.702C171.084 226.102 172.684 239.402 175.384 252.802C176.384 244.502 177.384 236.202 178.384 227.902C182.884 188.502 187.284 149.102 191.684 109.702C195.284 77.8022 198.884 45.8022 202.484 13.9022C202.684 12.2022 202.984 10.6022 203.284 9.00221C204.384 3.40221 208.284 0.102208 213.584 0.00220843C219.084 -0.0977916 223.484 3.20221 224.384 9.10221C225.584 16.8022 226.384 24.6022 227.284 32.4022C230.584 61.7022 233.884 91.0022 237.184 120.302C241.484 158.702 245.884 197.102 250.184 235.502C250.884 241.902 251.684 248.402 253.084 254.802C254.784 240.202 256.484 225.702 258.084 211.102C263.484 163.302 268.784 115.402 274.184 67.6022C275.184 59.1022 279.584 54.4022 285.984 54.9022C291.284 55.3022 295.284 59.2022 296.184 65.5022C298.284 78.7022 300.184 91.9022 302.184 105.002C307.384 139.802 312.584 174.502 317.784 209.302C319.084 217.902 320.284 226.402 322.384 235.102C322.884 233.302 323.384 231.502 323.784 229.702C331.084 195.002 338.384 160.302 345.684 125.602C347.084 118.802 350.784 115.002 356.184 114.702C361.684 114.402 365.684 117.602 367.984 124.202C373.784 141.602 379.684 158.902 385.284 176.402C386.384 179.902 388.084 181.002 391.584 180.902C398.884 180.602 406.284 180.702 413.584 180.902C419.884 181.002 423.684 184.402 423.684 189.602C423.684 194.902 420.084 198.002 413.584 198.102C403.384 198.202 393.284 198.202 383.084 198.102C375.984 198.102 373.984 196.502 371.784 189.902C368.084 178.702 364.384 167.502 360.584 156.302C360.084 154.902 359.584 153.602 357.984 152.202C356.584 158.602 355.084 164.902 353.784 171.302C346.684 205.402 339.584 239.402 332.284 273.502C331.584 276.602 330.084 280.002 327.884 282.102C321.684 287.802 311.984 283.802 310.584 275.102C307.784 257.002 305.184 238.902 302.484 220.702C297.484 187.402 292.484 154.202 287.484 120.902C287.284 120.402 286.984 120.002 286.084 118.302Z" fill="#F2F1F0"/>
</svg>
